<svg xmlns="http://www.w3.org/2000/svg" height="24" viewBox="0 -960 960 960" width="24"><path d="M227.692-200v-40h58.616l75.153-253.769q5.693-21.385 22.962-33.808Q401.692-540 423.077-540h113.846q21.385 0 38.654 12.423 17.269 12.423 22.962 33.808L673.692-240h58.616v40H227.692Zm101.077-40h302.462L560-482.308q-2.308-8.461-8.846-13.077-6.539-4.615-15-4.615H423.846q-8.461 0-15 4.615-6.538 4.616-8.846 13.077L328.769-240ZM460-644.615v-160.001h40v160.001h-40Zm218 90.538-28.539-28.538L763-695.154l27.539 27.539L678-554.077Zm62 189.462v-40.001h160v40.001H740ZM282-554.077 169.461-667.615 197-695.154l113.539 112.539L282-554.077ZM60-364.615v-40.001h160v40.001H60ZM480-240Z"/></svg>