<svg xmlns="http://www.w3.org/2000/svg" height="24" viewBox="0 -960 960 960" width="24"><path d="M200-160v-575.385Q200-763 218.5-781.5 237-800 264.615-800h190.77Q483-800 501.5-781.5 520-763 520-735.385v240h36.923q26.654 0 45.635 18.981 18.981 18.981 18.981 45.635v183.077q0 21.615 15.346 36.961t36.961 15.346q21.616 0 36.962-15.346 15.346-15.346 15.346-36.961v-272.616q-9 5.77-19 8.423-10 2.654-21 2.654-31.662 0-53.523-21.861-21.862-21.862-21.862-53.523 0-27.385 16.346-48.27 16.347-20.884 43.039-25.731l-96.308-96.307L598.923-780l137.231 136.307q11.923 11.924 18.654 27.384t6.731 31.694v336.923q0 36.831-25.387 62.261Q710.765-160 673.998-160t-62.305-25.431q-25.539-25.43-25.539-62.261v-187.693q0-10.769-6.923-17.692T561.539-460H520v300H200Zm40-380h240v-195.385q0-9.23-7.692-16.923Q464.615-760 455.385-760h-190.77q-9.23 0-16.923 7.692Q240-744.615 240-735.385V-540Zm446.154-4.615q17 0 28.5-11.5t11.5-28.5q0-17-11.5-28.5t-28.5-11.5q-17 0-28.5 11.5t-11.5 28.5q0 17 11.5 28.5t28.5 11.5ZM240-200h240v-300H240v300Zm240 0H240h240Z"/></svg>