<svg xmlns="http://www.w3.org/2000/svg" height="24" viewBox="0 -960 960 960" width="24"><path d="M160-220q-58.308 0-99.154-40.846T20-360q0-56.231 38.423-96.385t94.654-42.692h29.23l-63.384-53.231H20v-35.384h141.539l116.923 69.23L443.077-580h164.461l-94.307-120H420v-40h112.769l74.77 95.692 118.615-43.385v69.232H628l105.385 135.076q15-9.077 32.038-12.846Q782.462-500 800-500q58.308 0 99.154 40.846T940-360q0 58.308-40.846 99.154T800-220q-58.308 0-99.154-40.846T660-360q0-28.538 11.038-53.654 11.039-25.115 31.116-44.808l-47.692-60.922L510.769-300H407.692L300-393.077v35.385q-1.154 57.615-41.769 97.654Q217.615-220 160-220Zm0-40q42.231 0 71.115-28.885Q260-317.769 260-360q0-42.231-28.885-71.115Q202.231-460 160-460q-42.231 0-71.115 28.885Q60-402.231 60-360q0 42.231 28.885 71.115Q117.769-260 160-260Zm290.923-280-179.384 66.308L450.923-540h170-170ZM800-260q42.231 0 71.115-28.885Q900-317.769 900-360q0-42.231-28.885-71.115Q842.231-460 800-460q-42.231 0-71.115 28.885Q700-402.231 700-360q0 42.231 28.885 71.115Q757.769-260 800-260Zm-311.231-80 132.154-200h-170l-179.384 66.308L422.308-340h66.461Z"/></svg>